<svg xmlns="http://www.w3.org/2000/svg">
  <symbol id="sun" viewBox="0 0 24 24">
    <g fill="none" stroke="currentColor" stroke-linecap="round" stroke-linejoin="round" stroke-width="2">
      <circle cx="12" cy="12" r="4" />
      <path d="M12 2v2" />
      <path d="M12 20v2" />
      <path d="m4.93 4.93 1.41 1.41" />
      <path d="m17.66 17.66 1.41 1.41" />
      <path d="M2 12h2" />
      <path d="M20 12h2" />
      <path d="m6.34 17.66-1.41 1.41" />
      <path d="m19.07 4.93-1.41 1.41" />
    </g>
  </symbol>
  <symbol id="moon" viewBox="0 0 24 24">
    <path d="M20.99 12.79A8.5 8.5 0 1 1 11.21 3a6.5 6.5 0 0 0 9.78 9.79Z" fill="none" stroke="currentColor" stroke-linecap="round" stroke-linejoin="round" stroke-width="2" />
  </symbol>
  <symbol id="linkedin" viewBox="0 0 24 24">
    <path d="M3.56 2.5a2.06 2.06 0 1 0 0 4.12 2.06 2.06 0 0 0 0-4.12ZM1.78 8.99h3.56v11.46H1.78V8.99Zm7.57 0h3.41v1.57h.05c.47-.9 1.63-1.85 3.37-1.85 3.6 0 4.27 2.37 4.27 5.46v6.28h-3.56v-5.57c0-1.33-.02-3.04-1.85-3.04-1.85 0-2.13 1.45-2.13 2.94v5.67H9.35V8.99Z" fill="currentColor" />
  </symbol>
  <symbol id="github" viewBox="0 0 24 24">
    <path d="M12 2C6.48 2 2 6.48 2 12.02c0 4.42 2.87 8.18 6.84 9.5.5.09.68-.22.68-.48l-.01-1.7c-2.78.6-3.37-1.35-3.37-1.35-.46-1.16-1.11-1.46-1.11-1.46-.91-.62.07-.61.07-.61 1 .07 1.53 1.03 1.53 1.03.89 1.53 2.34 1.09 2.91.83.09-.65.35-1.09.64-1.34-2.22-.25-4.56-1.11-4.56-4.95 0-1.09.39-1.99 1.03-2.69-.1-.25-.45-1.27.1-2.65 0 0 .84-.27 2.75 1.03A9.58 9.58 0 0 1 12 6.84c.85 0 1.68.11 2.5.34 1.91-1.3 2.75-1.03 2.75-1.03.55 1.38.2 2.4.1 2.65.64.7 1.03 1.6 1.03 2.69 0 3.85-2.34 4.7-4.57 4.94.36.31.68.92.68 1.86l-.01 2.75c0 .27.18.58.69.48A10.02 10.02 0 0 0 22 12.02C22 6.48 17.52 2 12 2Z" fill="currentColor" />
  </symbol>
  <symbol id="email" viewBox="0 0 24 24">
    <path d="M20 4H4a2 2 0 0 0-2 2v12c0 1.1.9 2 2 2h16a2 2 0 0 0 2-2V6c0-1.1-.9-2-2-2Zm0 4-8 5-8-5V6l8 5 8-5v2Z" fill="currentColor" />
  </symbol>
</svg>
