<svg xmlns="http://www.w3.org/2000/svg" width="1440" height="760" viewBox="0 0 1440 760" role="img" aria-label="Polinko evidence sankey" style="background: transparent;"><text x="64" y="50" fill="#171717" font-family="Arial, Helvetica, sans-serif" font-size="20" font-weight="600">Polinko Evidence Sankey</text><text x="64" y="76" fill="#666666" font-family="Arial, Helvetica, sans-serif" font-size="12">Static D3 Sankey generated from /portfolio/sankey-data • 324 tagged signal mentions</text><text x="1376" y="76" fill="#666666" font-family="Arial, Helvetica, sans-serif" font-size="12" text-anchor="end">Legacy -&gt; bridge continuity</text><g fill="none"><path d="M512,391.2592592592593C720,391.2592592592593,720,251.27777777777777,928,251.27777777777777" stroke="rgba(89, 161, 79, 0.38)" stroke-width="74.82716049382717" stroke-linecap="butt"></path><path d="M512,466.7314814814815C720,466.7314814814815,720,363.52160493827154,928,363.52160493827154" stroke="rgba(89, 161, 79, 0.38)" stroke-width="76.11728395061728" stroke-linecap="butt"></path><path d="M512,573.8117283950617C720,573.8117283950617,720,651.2314814814813,928,651.2314814814813" stroke="rgba(89, 161, 79, 0.38)" stroke-width="68.37654320987654" stroke-linecap="butt"></path><path d="M512,291.9166666666666C720,291.9166666666666,720,317.0771604938271,928,317.0771604938271" stroke="rgba(242, 142, 43, 0.38)" stroke-width="16.771604938271604" stroke-linecap="butt"></path><path d="M512,324.1697530864197C720,324.1697530864197,720,607.3672839506172,928,607.3672839506172" stroke="rgba(242, 142, 43, 0.38)" stroke-width="19.35185185185185" stroke-linecap="butt"></path><path d="M512,527.3672839506173C720,527.3672839506173,720,168.70679012345678,928,168.70679012345678" stroke="rgba(89, 161, 79, 0.38)" stroke-width="16.771604938271604" stroke-linecap="butt"></path><path d="M512,275.145061728395C720,275.145061728395,720,205.4783950617284,928,205.4783950617284" stroke="rgba(242, 142, 43, 0.38)" stroke-width="16.771604938271604" stroke-linecap="butt"></path><path d="M512,189.3487654320988C720,189.3487654320988,720,415.12654320987644,928,415.12654320987644" stroke="rgba(225, 87, 89, 0.38)" stroke-width="27.09259259259259" stroke-linecap="butt"></path><path d="M512,219.0216049382716C720,219.0216049382716,720,535.1141975308641,928,535.1141975308641" stroke="rgba(225, 87, 89, 0.38)" stroke-width="32.25308641975309" stroke-linecap="butt"></path><path d="M512,309.33333333333326C720,309.33333333333326,720,155.1604938271605,928,155.1604938271605" stroke="rgba(242, 142, 43, 0.38)" stroke-width="10.320987654320987" stroke-linecap="butt"></path><path d="M512,302.23765432098753C720,302.23765432098753,720,502.861111111111,928,502.861111111111" stroke="rgba(242, 142, 43, 0.38)" stroke-width="3.8703703703703702" stroke-linecap="butt"></path><path d="M512,511.8858024691358C720,511.8858024691358,720,511.89197530864186,928,511.89197530864186" stroke="rgba(89, 161, 79, 0.38)" stroke-width="14.191358024691358" stroke-linecap="butt"></path><path d="M512,162.90123456790124C720,162.90123456790124,720,468.02469135802454,928,468.02469135802454" stroke="rgba(225, 87, 89, 0.38)" stroke-width="25.80246913580247" stroke-linecap="butt"></path><path d="M512,239.01851851851853C720,239.01851851851853,720,686.7098765432097,928,686.7098765432097" stroke="rgba(225, 87, 89, 0.38)" stroke-width="2.580246913580247" stroke-linecap="butt"></path><path d="M512,236.43827160493828C720,236.43827160493828,720,576.401234567901,928,576.401234567901" stroke="rgba(225, 87, 89, 0.38)" stroke-width="2.580246913580247" stroke-linecap="butt"></path><path d="M512,263.53395061728384C720,263.53395061728384,720,451.898148148148,928,451.898148148148" stroke="rgba(242, 142, 43, 0.38)" stroke-width="6.450617283950617" stroke-linecap="butt"></path><path d="M512,537.6882716049383C720,537.6882716049383,720,573.1759259259259,928,573.1759259259259" stroke="rgba(89, 161, 79, 0.38)" stroke-width="3.8703703703703702" stroke-linecap="butt"></path><path d="M80,597.666702844127C288,597.666702844127,288,195.15432098765433,496,195.15432098765433" stroke="rgba(225, 87, 89, 0.38)" stroke-width="90.30864197530863" stroke-linecap="butt"></path><path d="M80,261.58954235029995C288,261.58954235029995,288,297.0771604938271,496,297.0771604938271" stroke="rgba(242, 142, 43, 0.38)" stroke-width="73.53703703703704" stroke-linecap="butt"></path><path d="M80,425.4352213626456C288,425.4352213626456,288,480.92283950617286,496,480.92283950617286" stroke="rgba(89, 161, 79, 0.38)" stroke-width="254.1543209876543" stroke-linecap="butt"></path><path d="M944,175.80246913580248C1152,175.80246913580248,1152,238.8384337732286,1360,238.8384337732286" stroke="rgba(176, 122, 161, 0.38)" stroke-width="2.580246913580247" stroke-linecap="butt"></path><path d="M944,156.4506172839506C1152,156.4506172839506,1152,417.5236189584137,1360,417.5236189584137" stroke="rgba(156, 117, 95, 0.38)" stroke-width="12.901234567901234" stroke-linecap="butt"></path><path d="M944,168.70679012345678C1152,168.70679012345678,1152,620.0760880942161,1360,620.0760880942161" stroke="rgba(237, 201, 72, 0.38)" stroke-width="11.61111111111111" stroke-linecap="butt"></path><path d="M944,284.1759259259259C1152,284.1759259259259,1152,216.26127327940142,1360,216.26127327940142" stroke="rgba(176, 122, 161, 0.38)" stroke-width="9.030864197530864" stroke-linecap="butt"></path><path d="M944,219.0246913580247C1152,219.0246913580247,1152,307.8631251312532,1360,307.8631251312532" stroke="rgba(156, 117, 95, 0.38)" stroke-width="43.864197530864196" stroke-linecap="butt"></path><path d="M944,260.30864197530866C1152,260.30864197530866,1152,522.6717671065618,1360,522.6717671065618" stroke="rgba(237, 201, 72, 0.38)" stroke-width="38.7037037037037" stroke-linecap="butt"></path><path d="M944,422.8672839506172C1152,422.8672839506172,1152,226.58226093372238,1360,226.58226093372238" stroke="rgba(176, 122, 161, 0.38)" stroke-width="11.61111111111111" stroke-linecap="butt"></path><path d="M944,337.074074074074C1152,337.074074074074,1152,358.177939946068,1360,358.177939946068" stroke="rgba(156, 117, 95, 0.38)" stroke-width="56.76543209876543" stroke-linecap="butt"></path><path d="M944,391.2592592592592C1152,391.2592592592592,1152,567.8260880942161,1360,567.8260880942161" stroke="rgba(237, 201, 72, 0.38)" stroke-width="51.60493827160494" stroke-linecap="butt"></path><path d="M944,479.6358024691356C1152,479.6358024691356,1152,210.45571772384585,1360,210.45571772384585" stroke="rgba(176, 122, 161, 0.38)" stroke-width="2.580246913580247" stroke-linecap="butt"></path><path d="M944,456.41358024691345C1152,456.41358024691345,1152,278.1902856250804,1360,278.1902856250804" stroke="rgba(156, 117, 95, 0.38)" stroke-width="15.481481481481481" stroke-linecap="butt"></path><path d="M944,471.24999999999983C1152,471.24999999999983,1152,496.2242362423642,1360,496.2242362423642" stroke="rgba(237, 201, 72, 0.38)" stroke-width="14.191358024691358" stroke-linecap="butt"></path><path d="M944,548.6604938271604C1152,548.6604938271604,1152,234.9680634028582,1360,234.9680634028582" stroke="rgba(176, 122, 161, 0.38)" stroke-width="5.160493827160494" stroke-linecap="butt"></path><path d="M944,513.182098765432C1152,513.182098765432,1152,398.8168288349569,1360,398.8168288349569" stroke="rgba(156, 117, 95, 0.38)" stroke-width="24.512345679012345" stroke-linecap="butt"></path><path d="M944,535.7592592592591C1152,535.7592592592591,1152,603.9495448843396,1360,603.9495448843396" stroke="rgba(237, 201, 72, 0.38)" stroke-width="20.641975308641975" stroke-linecap="butt"></path><path d="M944,577.0462962962962C1152,577.0462962962962,1152,240.77361895841378,1360,240.77361895841378" stroke="rgba(176, 122, 161, 0.38)" stroke-width="1.2901234567901234" stroke-linecap="butt"></path><path d="M944,572.5308641975307C1152,572.5308641975307,1152,425.2643596991544,1360,425.2643596991544" stroke="rgba(156, 117, 95, 0.38)" stroke-width="2.580246913580247" stroke-linecap="butt"></path><path d="M944,575.111111111111C1152,575.111111111111,1152,627.1717671065617,1360,627.1717671065617" stroke="rgba(237, 201, 72, 0.38)" stroke-width="2.580246913580247" stroke-linecap="butt"></path><path d="M944,683.4845679012345C1152,683.4845679012345,1152,245.93411278557429,1360,245.93411278557429" stroke="rgba(176, 122, 161, 0.38)" stroke-width="9.030864197530864" stroke-linecap="butt"></path><path d="M944,618.9783950617283C1152,618.9783950617283,1152,447.84152019298153,1360,447.84152019298153" stroke="rgba(156, 117, 95, 0.38)" stroke-width="42.574074074074076" stroke-linecap="butt"></path><path d="M944,659.6172839506172C1152,659.6172839506172,1152,647.8137424152037,1360,647.8137424152037" stroke="rgba(237, 201, 72, 0.38)" stroke-width="38.7037037037037" stroke-linecap="butt"></path></g><g><g><rect x="64" y="224.82102383178142" height="417.9999999999999" width="16" rx="0" fill="#4E79A7" stroke="#4a4a4a" stroke-width="0.5"></rect><text x="90" y="429.82102383178136" text-anchor="start" fill="#202020" font-family="Arial, Helvetica, sans-serif" font-size="11.5" font-weight="600">Beta 1.0 manual evals</text><text x="90" y="446.82102383178136" text-anchor="start" fill="#666666" font-family="Arial, Helvetica, sans-serif" font-size="11">324</text></g><g><rect x="496" y="150" height="90.30864197530855" width="16" rx="0" fill="#E15759" stroke="#4a4a4a" stroke-width="0.5"></rect><text x="522" y="191.15432098765427" text-anchor="start" fill="#202020" font-family="Arial, Helvetica, sans-serif" font-size="11.5" font-weight="600">Manual Fail</text><text x="522" y="208.15432098765427" text-anchor="start" fill="#666666" font-family="Arial, Helvetica, sans-serif" font-size="11">70</text></g><g><rect x="496" y="260.30864197530855" height="73.53703703703718" width="16" rx="0" fill="#F28E2B" stroke="#4a4a4a" stroke-width="0.5"></rect><text x="522" y="293.07716049382714" text-anchor="start" fill="#202020" font-family="Arial, Helvetica, sans-serif" font-size="11.5" font-weight="600">Manual Partial</text><text x="522" y="310.07716049382714" text-anchor="start" fill="#666666" font-family="Arial, Helvetica, sans-serif" font-size="11">57</text></g><g><rect x="496" y="353.8456790123457" height="254.15432098765405" width="16" rx="0" fill="#59A14F" stroke="#4a4a4a" stroke-width="0.5"></rect><text x="522" y="476.92283950617275" text-anchor="start" fill="#202020" font-family="Arial, Helvetica, sans-serif" font-size="11.5" font-weight="600">Manual Pass</text><text x="522" y="493.92283950617275" text-anchor="start" fill="#666666" font-family="Arial, Helvetica, sans-serif" font-size="11">197</text></g><g><rect x="928" y="150" height="27.09259259259261" width="16" rx="0" fill="#76B7B2" stroke="#4a4a4a" stroke-width="0.5"></rect><text x="918" y="159.5462962962963" text-anchor="end" fill="#202020" font-family="Arial, Helvetica, sans-serif" font-size="11.5" font-weight="600">Correctness</text><text x="918" y="176.5462962962963" text-anchor="end" fill="#666666" font-family="Arial, Helvetica, sans-serif" font-size="11">21</text></g><g><rect x="928" y="197.0925925925926" height="91.59876543209867" width="16" rx="0" fill="#76B7B2" stroke="#4a4a4a" stroke-width="0.5"></rect><text x="918" y="238.89197530864195" text-anchor="end" fill="#202020" font-family="Arial, Helvetica, sans-serif" font-size="11.5" font-weight="600">General eval</text><text x="918" y="255.89197530864195" text-anchor="end" fill="#666666" font-family="Arial, Helvetica, sans-serif" font-size="11">71</text></g><g><rect x="928" y="308.6913580246913" height="119.98148148148141" width="16" rx="0" fill="#76B7B2" stroke="#4a4a4a" stroke-width="0.5"></rect><text x="918" y="364.682098765432" text-anchor="end" fill="#202020" font-family="Arial, Helvetica, sans-serif" font-size="11.5" font-weight="600">Grounding</text><text x="918" y="381.682098765432" text-anchor="end" fill="#666666" font-family="Arial, Helvetica, sans-serif" font-size="11">93</text></g><g><rect x="928" y="448.6728395061727" height="32.25308641975312" width="16" rx="0" fill="#76B7B2" stroke="#4a4a4a" stroke-width="0.5"></rect><text x="918" y="460.79938271604925" text-anchor="end" fill="#202020" font-family="Arial, Helvetica, sans-serif" font-size="11.5" font-weight="600">Hallucination risk</text><text x="918" y="477.79938271604925" text-anchor="end" fill="#666666" font-family="Arial, Helvetica, sans-serif" font-size="11">25</text></g><g><rect x="928" y="500.9259259259258" height="50.31481481481484" width="16" rx="0" fill="#76B7B2" stroke="#4a4a4a" stroke-width="0.5"></rect><text x="918" y="522.0833333333333" text-anchor="end" fill="#202020" font-family="Arial, Helvetica, sans-serif" font-size="11.5" font-weight="600">OCR signal</text><text x="918" y="539.0833333333333" text-anchor="end" fill="#666666" font-family="Arial, Helvetica, sans-serif" font-size="11">39</text></g><g><rect x="928" y="571.2407407407406" height="6.450617283950578" width="16" rx="0" fill="#76B7B2" stroke="#4a4a4a" stroke-width="0.5"></rect><text x="918" y="570.4660493827159" text-anchor="end" fill="#202020" font-family="Arial, Helvetica, sans-serif" font-size="11.5" font-weight="600">Recovery</text><text x="918" y="587.4660493827159" text-anchor="end" fill="#666666" font-family="Arial, Helvetica, sans-serif" font-size="11">5</text></g><g><rect x="928" y="597.6913580246912" height="90.30864197530832" width="16" rx="0" fill="#76B7B2" stroke="#4a4a4a" stroke-width="0.5"></rect><text x="918" y="638.8456790123454" text-anchor="end" fill="#202020" font-family="Arial, Helvetica, sans-serif" font-size="11.5" font-weight="600">Style and voice</text><text x="918" y="655.8456790123454" text-anchor="end" fill="#666666" font-family="Arial, Helvetica, sans-serif" font-size="11">70</text></g><g><rect x="1360" y="209.16559426705572" height="41.28395061728389" width="16" rx="0" fill="#B07AA1" stroke="#4a4a4a" stroke-width="0.5"></rect><text x="1350" y="225.80756957569767" text-anchor="end" fill="#202020" font-family="Arial, Helvetica, sans-serif" font-size="11.5" font-weight="600">Handwriting</text><text x="1350" y="242.80756957569767" text-anchor="end" fill="#666666" font-family="Arial, Helvetica, sans-serif" font-size="11">32</text></g><g><rect x="1360" y="270.4495448843396" height="198.67901234567893" width="16" rx="0" fill="#9C755F" stroke="#4a4a4a" stroke-width="0.5"></rect><text x="1350" y="365.7890510571791" text-anchor="end" fill="#202020" font-family="Arial, Helvetica, sans-serif" font-size="11.5" font-weight="600">Illustration</text><text x="1350" y="382.7890510571791" text-anchor="end" fill="#666666" font-family="Arial, Helvetica, sans-serif" font-size="11">154</text></g><g><rect x="1360" y="489.12855723001854" height="178.03703703703712" width="16" rx="0" fill="#EDC948" stroke="#4a4a4a" stroke-width="0.5"></rect><text x="1350" y="574.1470757485371" text-anchor="end" fill="#202020" font-family="Arial, Helvetica, sans-serif" font-size="11.5" font-weight="600">Text</text><text x="1350" y="591.1470757485371" text-anchor="end" fill="#666666" font-family="Arial, Helvetica, sans-serif" font-size="11">138</text></g></g><text x="72" y="124" text-anchor="middle" fill="#555555" font-family="Arial, Helvetica, sans-serif" font-size="11" font-weight="600">Manual evals</text><text x="504" y="124" text-anchor="middle" fill="#555555" font-family="Arial, Helvetica, sans-serif" font-size="11" font-weight="600">Manual outcomes</text><text x="936" y="124" text-anchor="middle" fill="#555555" font-family="Arial, Helvetica, sans-serif" font-size="11" font-weight="600">Signal classes</text><text x="1368" y="124" text-anchor="middle" fill="#555555" font-family="Arial, Helvetica, sans-serif" font-size="11" font-weight="600">Current OCR lanes</text><text x="64" y="734" fill="#666666" font-family="Arial, Helvetica, sans-serif" font-size="11">Beta 1.0 manual evals flow into tagged failure signals, then into current OCR lane weighting.</text></svg>