<svg xmlns="http://www.w3.org/2000/svg" width="1440" height="760" viewBox="0 0 1440 760" role="img" aria-label="Polinko evidence sankey" style="background: transparent;"><text x="64" y="50" fill="#171717" font-family="Arial, Helvetica, sans-serif" font-size="20" font-weight="600">Polinko Evidence Sankey</text><text x="64" y="76" fill="#666666" font-family="Arial, Helvetica, sans-serif" font-size="12">Static D3 Sankey generated from tracked eval evidence • 324 tagged signal mentions</text><text x="1376" y="76" fill="#666666" font-family="Arial, Helvetica, sans-serif" font-size="12" text-anchor="end">Legacy -&gt; bridge continuity</text><g fill="none"><path d="M512,391.2592592592594C720,391.2592592592594,720,251.27777777777766,928,251.27777777777766" stroke="rgba(89, 161, 79, 0.38)" stroke-width="74.82716049382717" stroke-linecap="butt"></path><path d="M512,466.73148148148164C720,466.73148148148164,720,363.52160493827137,928,363.52160493827137" stroke="rgba(89, 161, 79, 0.38)" stroke-width="76.11728395061728" stroke-linecap="butt"></path><path d="M512,573.8117283950618C720,573.8117283950618,720,651.2314814814811,928,651.2314814814811" stroke="rgba(89, 161, 79, 0.38)" stroke-width="68.37654320987654" stroke-linecap="butt"></path><path d="M512,291.9166666666668C720,291.9166666666668,720,317.0771604938269,928,317.0771604938269" stroke="rgba(242, 142, 43, 0.38)" stroke-width="16.771604938271604" stroke-linecap="butt"></path><path d="M512,324.1697530864199C720,324.1697530864199,720,607.367283950617,928,607.367283950617" stroke="rgba(242, 142, 43, 0.38)" stroke-width="19.35185185185185" stroke-linecap="butt"></path><path d="M512,527.3672839506174C720,527.3672839506174,720,168.70679012345678,928,168.70679012345678" stroke="rgba(89, 161, 79, 0.38)" stroke-width="16.771604938271604" stroke-linecap="butt"></path><path d="M512,275.1450617283952C720,275.1450617283952,720,205.4783950617283,928,205.4783950617283" stroke="rgba(242, 142, 43, 0.38)" stroke-width="16.771604938271604" stroke-linecap="butt"></path><path d="M512,189.3487654320988C720,189.3487654320988,720,415.1265432098763,928,415.1265432098763" stroke="rgba(225, 87, 89, 0.38)" stroke-width="27.09259259259259" stroke-linecap="butt"></path><path d="M512,219.0216049382716C720,219.0216049382716,720,535.1141975308639,928,535.1141975308639" stroke="rgba(225, 87, 89, 0.38)" stroke-width="32.25308641975309" stroke-linecap="butt"></path><path d="M512,309.3333333333335C720,309.3333333333335,720,155.1604938271605,928,155.1604938271605" stroke="rgba(242, 142, 43, 0.38)" stroke-width="10.320987654320987" stroke-linecap="butt"></path><path d="M512,302.23765432098776C720,302.23765432098776,720,502.86111111111074,928,502.86111111111074" stroke="rgba(242, 142, 43, 0.38)" stroke-width="3.8703703703703702" stroke-linecap="butt"></path><path d="M512,511.8858024691359C720,511.8858024691359,720,511.89197530864163,928,511.89197530864163" stroke="rgba(89, 161, 79, 0.38)" stroke-width="14.191358024691358" stroke-linecap="butt"></path><path d="M512,162.90123456790124C720,162.90123456790124,720,468.02469135802437,928,468.02469135802437" stroke="rgba(225, 87, 89, 0.38)" stroke-width="25.80246913580247" stroke-linecap="butt"></path><path d="M512,239.01851851851853C720,239.01851851851853,720,686.7098765432095,928,686.7098765432095" stroke="rgba(225, 87, 89, 0.38)" stroke-width="2.580246913580247" stroke-linecap="butt"></path><path d="M512,236.43827160493828C720,236.43827160493828,720,576.4012345679008,928,576.4012345679008" stroke="rgba(225, 87, 89, 0.38)" stroke-width="2.580246913580247" stroke-linecap="butt"></path><path d="M512,263.53395061728406C720,263.53395061728406,720,451.8981481481478,928,451.8981481481478" stroke="rgba(242, 142, 43, 0.38)" stroke-width="6.450617283950617" stroke-linecap="butt"></path><path d="M512,537.6882716049384C720,537.6882716049384,720,573.1759259259256,928,573.1759259259256" stroke="rgba(89, 161, 79, 0.38)" stroke-width="3.8703703703703702" stroke-linecap="butt"></path><path d="M80,597.6700922471558C288,597.6700922471558,288,195.15432098765433,496,195.15432098765433" stroke="rgba(225, 87, 89, 0.38)" stroke-width="90.30864197530863" stroke-linecap="butt"></path><path d="M80,261.59293175332874C288,261.59293175332874,288,297.0771604938273,496,297.0771604938273" stroke="rgba(242, 142, 43, 0.38)" stroke-width="73.53703703703704" stroke-linecap="butt"></path><path d="M80,425.4386107656744C288,425.4386107656744,288,480.922839506173,496,480.922839506173" stroke="rgba(89, 161, 79, 0.38)" stroke-width="254.1543209876543" stroke-linecap="butt"></path><path d="M944,175.80246913580248C1152,175.80246913580248,1152,240.08327961527448,1360,240.08327961527448" stroke="rgba(176, 122, 161, 0.38)" stroke-width="2.580246913580247" stroke-linecap="butt"></path><path d="M944,156.4506172839506C1152,156.4506172839506,1152,414.89809443008926,1360,414.89809443008926" stroke="rgba(156, 117, 95, 0.38)" stroke-width="12.901234567901234" stroke-linecap="butt"></path><path d="M944,168.70679012345678C1152,168.70679012345678,1152,620.0308104794719,1360,620.0308104794719" stroke="rgba(237, 201, 72, 0.38)" stroke-width="11.61111111111111" stroke-linecap="butt"></path><path d="M944,284.1759259259258C1152,284.1759259259258,1152,217.5061191214473,1360,217.5061191214473" stroke="rgba(176, 122, 161, 0.38)" stroke-width="9.030864197530864" stroke-linecap="butt"></path><path d="M944,218.37962962962953C1152,218.37962962962953,1152,308.46290924490404,1360,308.46290924490404" stroke="rgba(156, 117, 95, 0.38)" stroke-width="42.574074074074076" stroke-linecap="butt"></path><path d="M944,259.6635802469135C1152,259.6635802469135,1152,519.4011808498423,1360,519.4011808498423" stroke="rgba(237, 201, 72, 0.38)" stroke-width="39.99382716049382" stroke-linecap="butt"></path><path d="M944,422.867283950617C1152,422.867283950617,1152,227.82710677576827,1360,227.82710677576827" stroke="rgba(176, 122, 161, 0.38)" stroke-width="11.61111111111111" stroke-linecap="butt"></path><path d="M944,336.42901234567876C1152,336.42901234567876,1152,357.48760060292875,1360,357.48760060292875" stroke="rgba(156, 117, 95, 0.38)" stroke-width="55.4753086419753" stroke-linecap="butt"></path><path d="M944,390.6141975308639C1152,390.6141975308639,1152,565.8456252942868,1360,565.8456252942868" stroke="rgba(237, 201, 72, 0.38)" stroke-width="52.89506172839506" stroke-linecap="butt"></path><path d="M944,479.63580246913546C1152,479.63580246913546,1152,211.70056356589174,1360,211.70056356589174" stroke="rgba(176, 122, 161, 0.38)" stroke-width="2.580246913580247" stroke-linecap="butt"></path><path d="M944,456.4135802469133C1152,456.4135802469133,1152,279.4351314671263,1360,279.4351314671263" stroke="rgba(156, 117, 95, 0.38)" stroke-width="15.481481481481481" stroke-linecap="butt"></path><path d="M944,471.24999999999966C1152,471.24999999999966,1152,492.3085882572497,1360,492.3085882572497" stroke="rgba(237, 201, 72, 0.38)" stroke-width="14.191358024691358" stroke-linecap="butt"></path><path d="M944,548.6604938271602C1152,548.6604938271602,1152,236.2129092449041,1360,236.2129092449041" stroke="rgba(176, 122, 161, 0.38)" stroke-width="5.160493827160494" stroke-linecap="butt"></path><path d="M944,512.5370370370367C1152,512.5370370370367,1152,396.8363660350275,1360,396.8363660350275" stroke="rgba(156, 117, 95, 0.38)" stroke-width="23.22222222222222" stroke-linecap="butt"></path><path d="M944,535.1141975308639C1152,535.1141975308639,1152,603.2592055412003,1360,603.2592055412003" stroke="rgba(237, 201, 72, 0.38)" stroke-width="21.932098765432098" stroke-linecap="butt"></path><path d="M944,577.046296296296C1152,577.046296296296,1152,242.01846480045967,1360,242.01846480045967" stroke="rgba(176, 122, 161, 0.38)" stroke-width="1.2901234567901234" stroke-linecap="butt"></path><path d="M944,572.5308641975305C1152,572.5308641975305,1152,422.63883517082996,1360,422.63883517082996" stroke="rgba(156, 117, 95, 0.38)" stroke-width="2.580246913580247" stroke-linecap="butt"></path><path d="M944,575.1111111111107C1152,575.1111111111107,1152,627.1264894918176,1360,627.1264894918176" stroke="rgba(237, 201, 72, 0.38)" stroke-width="2.580246913580247" stroke-linecap="butt"></path><path d="M944,683.4845679012343C1152,683.4845679012343,1152,247.17895862762018,1360,247.17895862762018" stroke="rgba(176, 122, 161, 0.38)" stroke-width="9.030864197530864" stroke-linecap="butt"></path><path d="M944,618.333333333333C1152,618.333333333333,1152,444.57093393626207,1360,444.57093393626207" stroke="rgba(156, 117, 95, 0.38)" stroke-width="41.28395061728395" stroke-linecap="butt"></path><path d="M944,658.9722222222218C1152,658.9722222222218,1152,648.4135265288546,1360,648.4135265288546" stroke="rgba(237, 201, 72, 0.38)" stroke-width="39.99382716049382" stroke-linecap="butt"></path></g><g><g><rect x="64" y="224.82441323481024" height="418" width="16" rx="0" fill="#4E79A7" stroke="#4a4a4a" stroke-width="0.5"></rect><text x="90" y="429.8244132348102" text-anchor="start" fill="#202020" font-family="Arial, Helvetica, sans-serif" font-size="11.5" font-weight="600">Beta 1.0 manual evals</text><text x="90" y="446.8244132348102" text-anchor="start" fill="#666666" font-family="Arial, Helvetica, sans-serif" font-size="11">324</text></g><g><rect x="496" y="150" height="90.30864197530877" width="16" rx="0" fill="#E15759" stroke="#4a4a4a" stroke-width="0.5"></rect><text x="522" y="191.1543209876544" text-anchor="start" fill="#202020" font-family="Arial, Helvetica, sans-serif" font-size="11.5" font-weight="600">Manual Fail</text><text x="522" y="208.1543209876544" text-anchor="start" fill="#666666" font-family="Arial, Helvetica, sans-serif" font-size="11">70</text></g><g><rect x="496" y="260.3086419753088" height="73.53703703703707" width="16" rx="0" fill="#F28E2B" stroke="#4a4a4a" stroke-width="0.5"></rect><text x="522" y="293.0771604938273" text-anchor="start" fill="#202020" font-family="Arial, Helvetica, sans-serif" font-size="11.5" font-weight="600">Manual Partial</text><text x="522" y="310.0771604938273" text-anchor="start" fill="#666666" font-family="Arial, Helvetica, sans-serif" font-size="11">57</text></g><g><rect x="496" y="353.84567901234584" height="254.15432098765416" width="16" rx="0" fill="#59A14F" stroke="#4a4a4a" stroke-width="0.5"></rect><text x="522" y="476.9228395061729" text-anchor="start" fill="#202020" font-family="Arial, Helvetica, sans-serif" font-size="11.5" font-weight="600">Manual Pass</text><text x="522" y="493.9228395061729" text-anchor="start" fill="#666666" font-family="Arial, Helvetica, sans-serif" font-size="11">197</text></g><g><rect x="928" y="150" height="27.092592592592496" width="16" rx="0" fill="#76B7B2" stroke="#4a4a4a" stroke-width="0.5"></rect><text x="918" y="159.54629629629625" text-anchor="end" fill="#202020" font-family="Arial, Helvetica, sans-serif" font-size="11.5" font-weight="600">Correctness</text><text x="918" y="176.54629629629625" text-anchor="end" fill="#666666" font-family="Arial, Helvetica, sans-serif" font-size="11">21</text></g><g><rect x="928" y="197.0925925925925" height="91.59876543209862" width="16" rx="0" fill="#76B7B2" stroke="#4a4a4a" stroke-width="0.5"></rect><text x="918" y="238.8919753086418" text-anchor="end" fill="#202020" font-family="Arial, Helvetica, sans-serif" font-size="11.5" font-weight="600">General eval</text><text x="918" y="255.8919753086418" text-anchor="end" fill="#666666" font-family="Arial, Helvetica, sans-serif" font-size="11">71</text></g><g><rect x="928" y="308.6913580246911" height="119.98148148148141" width="16" rx="0" fill="#76B7B2" stroke="#4a4a4a" stroke-width="0.5"></rect><text x="918" y="364.6820987654318" text-anchor="end" fill="#202020" font-family="Arial, Helvetica, sans-serif" font-size="11.5" font-weight="600">Grounding</text><text x="918" y="381.6820987654318" text-anchor="end" fill="#666666" font-family="Arial, Helvetica, sans-serif" font-size="11">93</text></g><g><rect x="928" y="448.6728395061725" height="32.25308641975306" width="16" rx="0" fill="#76B7B2" stroke="#4a4a4a" stroke-width="0.5"></rect><text x="918" y="460.7993827160491" text-anchor="end" fill="#202020" font-family="Arial, Helvetica, sans-serif" font-size="11.5" font-weight="600">Hallucination risk</text><text x="918" y="477.7993827160491" text-anchor="end" fill="#666666" font-family="Arial, Helvetica, sans-serif" font-size="11">25</text></g><g><rect x="928" y="500.9259259259256" height="50.31481481481484" width="16" rx="0" fill="#76B7B2" stroke="#4a4a4a" stroke-width="0.5"></rect><text x="918" y="522.083333333333" text-anchor="end" fill="#202020" font-family="Arial, Helvetica, sans-serif" font-size="11.5" font-weight="600">OCR signal</text><text x="918" y="539.083333333333" text-anchor="end" fill="#666666" font-family="Arial, Helvetica, sans-serif" font-size="11">39</text></g><g><rect x="928" y="571.2407407407404" height="6.450617283950578" width="16" rx="0" fill="#76B7B2" stroke="#4a4a4a" stroke-width="0.5"></rect><text x="918" y="570.4660493827157" text-anchor="end" fill="#202020" font-family="Arial, Helvetica, sans-serif" font-size="11.5" font-weight="600">Recovery</text><text x="918" y="587.4660493827157" text-anchor="end" fill="#666666" font-family="Arial, Helvetica, sans-serif" font-size="11">5</text></g><g><rect x="928" y="597.691358024691" height="90.30864197530832" width="16" rx="0" fill="#76B7B2" stroke="#4a4a4a" stroke-width="0.5"></rect><text x="918" y="638.8456790123452" text-anchor="end" fill="#202020" font-family="Arial, Helvetica, sans-serif" font-size="11.5" font-weight="600">Style and voice</text><text x="918" y="655.8456790123452" text-anchor="end" fill="#666666" font-family="Arial, Helvetica, sans-serif" font-size="11">70</text></g><g><rect x="1360" y="210.41044010910161" height="41.28395061728395" width="16" rx="0" fill="#B07AA1" stroke="#4a4a4a" stroke-width="0.5"></rect><text x="1350" y="227.0524154177436" text-anchor="end" fill="#202020" font-family="Arial, Helvetica, sans-serif" font-size="11.5" font-weight="600">Handwriting</text><text x="1350" y="244.0524154177436" text-anchor="end" fill="#666666" font-family="Arial, Helvetica, sans-serif" font-size="11">32</text></g><g><rect x="1360" y="271.69439072638556" height="193.51851851851848" width="16" rx="0" fill="#9C755F" stroke="#4a4a4a" stroke-width="0.5"></rect><text x="1350" y="364.4536499856448" text-anchor="end" fill="#202020" font-family="Arial, Helvetica, sans-serif" font-size="11.5" font-weight="600">Illustration</text><text x="1350" y="381.4536499856448" text-anchor="end" fill="#666666" font-family="Arial, Helvetica, sans-serif" font-size="11">150</text></g><g><rect x="1360" y="485.21290924490404" height="183.1975308641977" width="16" rx="0" fill="#EDC948" stroke="#4a4a4a" stroke-width="0.5"></rect><text x="1350" y="572.8116746770029" text-anchor="end" fill="#202020" font-family="Arial, Helvetica, sans-serif" font-size="11.5" font-weight="600">Text</text><text x="1350" y="589.8116746770029" text-anchor="end" fill="#666666" font-family="Arial, Helvetica, sans-serif" font-size="11">142</text></g></g><text x="72" y="124" text-anchor="middle" fill="#555555" font-family="Arial, Helvetica, sans-serif" font-size="11" font-weight="600">Manual evals</text><text x="504" y="124" text-anchor="middle" fill="#555555" font-family="Arial, Helvetica, sans-serif" font-size="11" font-weight="600">Manual outcomes</text><text x="936" y="124" text-anchor="middle" fill="#555555" font-family="Arial, Helvetica, sans-serif" font-size="11" font-weight="600">Signal classes</text><text x="1368" y="124" text-anchor="middle" fill="#555555" font-family="Arial, Helvetica, sans-serif" font-size="11" font-weight="600">Current OCR lanes</text><text x="64" y="734" fill="#666666" font-family="Arial, Helvetica, sans-serif" font-size="11">Beta 1.0 manual evals flow into tagged failure signals, then into current OCR lane weighting.</text></svg>