<svg xmlns="http://www.w3.org/2000/svg" width="880" height="260" viewBox="0 0 880 260" role="img" aria-labelledby="title desc">
  <title id="title">Polinko runtime architecture overview</title>
  <desc id="desc">A high-level flow from server and config into the FastAPI app factory, runtime core, binary eval reports, and public evidence surfaces.</desc>
  <defs>
    <style>
      .bg { fill: #ffffff; }
      .box { rx: 14; ry: 14; stroke-width: 2; }
      .label { font-family: -apple-system, BlinkMacSystemFont, "Segoe UI", sans-serif; font-size: 16px; fill: #1f1f1f; font-weight: 600; }
      .sub { font-family: -apple-system, BlinkMacSystemFont, "Segoe UI", sans-serif; font-size: 12px; fill: #555555; }
      .arrow { stroke: #5b6168; stroke-width: 2.5; fill: none; marker-end: url(#arrowhead); }
    </style>
    <marker id="arrowhead" markerWidth="10" markerHeight="7" refX="9" refY="3.5" orient="auto">
      <polygon points="0 0, 10 3.5, 0 7" fill="#5b6168" />
    </marker>
  </defs>

  <rect class="bg" width="880" height="260" />

  <rect class="box" x="24" y="32" width="160" height="74" fill="#eef4fb" stroke="#4e79a7" />
  <text class="label" x="104" y="62" text-anchor="middle">server.py</text>
  <text class="sub" x="104" y="84" text-anchor="middle">API entrypoint</text>

  <rect class="box" x="24" y="154" width="160" height="74" fill="#eef4fb" stroke="#4e79a7" />
  <text class="label" x="104" y="184" text-anchor="middle">config.py</text>
  <text class="sub" x="104" y="206" text-anchor="middle">env + validation</text>

  <rect class="box" x="252" y="92" width="170" height="74" fill="#fbf5e8" stroke="#f28e2b" />
  <text class="label" x="337" y="122" text-anchor="middle">app_factory</text>
  <text class="sub" x="337" y="144" text-anchor="middle">routes + middleware</text>

  <rect class="box" x="490" y="92" width="182" height="74" fill="#eef7f6" stroke="#76b7b2" />
  <text class="label" x="581" y="122" text-anchor="middle">core/ runtime</text>
  <text class="sub" x="581" y="144" text-anchor="middle">chat, retrieval, memory</text>

  <rect class="box" x="740" y="32" width="118" height="74" fill="#f6eef7" stroke="#b07aa1" />
  <text class="label" x="799" y="62" text-anchor="middle">.local/</text>
  <text class="sub" x="799" y="84" text-anchor="middle">runtime DBs</text>

  <rect class="box" x="710" y="154" width="148" height="74" fill="#f6eef7" stroke="#b07aa1" />
  <text class="label" x="784" y="184" text-anchor="middle">eval reports</text>
  <text class="sub" x="784" y="206" text-anchor="middle">binary gate evidence</text>

  <path class="arrow" d="M184 69 C214 69 220 102 252 114" />
  <path class="arrow" d="M184 191 C214 191 220 156 252 144" />
  <path class="arrow" d="M422 129 L490 129" />
  <path class="arrow" d="M672 114 C704 114 712 88 740 69" />
  <path class="arrow" d="M672 144 C698 144 700 175 710 186" />

  <text class="sub" x="440" y="32">canonical path: request → app wiring → runtime → evidence surfaces</text>
</svg>
